<svg xmlns="http://www.w3.org/2000/svg" width="18.466" height="27.7" viewBox="0 0 18.466 27.7">
  <g id="noun-water-energy-5023558" transform="translate(218.501 109.43) rotate(180)">
    <path id="Path_44" data-name="Path 44" d="M209.043,65.659a9.1,9.1,0,0,1-16.006,0,8.966,8.966,0,0,1-.033-9.01L201.04,42.73l8.036,13.918a8.967,8.967,0,0,1-.033,9.01Zm-4.429-6.491a.364.364,0,0,0-.286-.2l-2.432-.27.911-4.219a.362.362,0,0,0-.209-.407.361.361,0,0,0-.44.126L197.5,60.951a.36.36,0,0,0,.261.563l2.771.272-1.25,4.617a.359.359,0,0,0,.2.423.365.365,0,0,0,.45-.133l4.662-7.176a.358.358,0,0,0,.023-.35Z" transform="translate(8.228 39)" fill="#0862AB"/>
  </g>
</svg>
