<?xml version="1.0" encoding="UTF-8"?><svg id="Layer_1" xmlns="http://www.w3.org/2000/svg" viewBox="0 0 48 48"><defs><style>.cls-1{fill:#fff;}.cls-2{fill:#0963ac;}.cls-3{fill:#0c446d;}</style></defs><path class="cls-2" d="m38.22,20.97h-13.45c1.04-1.27,2.95-3.97,3.48-7.85.35-2.57-.01-4.9-.65-6.85,0-.02-.01-.04-.02-.06-1.13-3.41-3.11-5.69-3.58-6.22h-15.49C3.81,0,0,3.81,0,8.51v30.99c0,4.7,3.81,8.51,8.51,8.51h15.49c-1.19-1.24-2.65-3.02-3.61-5.32l17.83-21.7Z"/><polygon class="cls-1" points="20.39 42.67 20.39 42.68 20.38 42.68 20.39 42.67"/><path class="cls-1" d="m26.63,20.97h-1.86c1.04-1.27,2.95-3.97,3.48-7.85.35-2.57-.01-4.9-.65-6.85,0-.02-.01-.04-.02-.06l-.02.02L9.78,27.88h12.88c-2.15,3.66-3.88,7.32-3.16,11.74.18,1.1.49,2.12.88,3.05,0,0,0,0,0,0l17.83-21.7h-11.59Z"/><path class="cls-1" d="m27.61,6.17l-.02.11s-.01-.04-.02-.06l.04-.05Z"/><path class="cls-3" d="m48,8.51v30.99c0,4.7-3.81,8.51-8.51,8.51h-15.49c-1.19-1.24-2.65-3.02-3.61-5.32l17.83-21.7h-13.45c1.04-1.27,2.95-3.97,3.48-7.85.35-2.57-.01-4.9-.65-6.85,0-.02-.01-.04-.02-.06-1.13-3.41-3.11-5.69-3.58-6.22h15.49c4.7,0,8.51,3.81,8.51,8.51Z"/></svg>