<svg xmlns="http://www.w3.org/2000/svg" width="40" height="40" viewBox="0 0 40 40">
  <g id="Group_46" data-name="Group 46" transform="translate(-1503 -147)">
    <rect id="Rectangle_11" data-name="Rectangle 11" width="40" height="40" transform="translate(1503 147)" fill="none"/>
    <g id="noun-hydro-power-4595043" transform="translate(1510 153.676)">
      <path id="Path_4" data-name="Path 4" d="M322.952,63.431h-3.271a.219.219,0,0,0-.219.219V77.662a.219.219,0,0,0,.219.219h7.7a.219.219,0,0,0,.2-.318l-4.41-10V63.65a.219.219,0,0,0-.219-.219Zm-.219,3.959H319.9V63.869h2.833Zm-2.833.438h2.91l4.24,9.614H319.9V67.829Z" transform="translate(-300.462 -56.818)" fill="#0862ab" stroke="#0862ab" stroke-width="0.4"/>
      <g id="Group_2" data-name="Group 2" transform="translate(23.997 24.159)">
        <path id="Path_8" data-name="Path 8" d="M0-.074H0v0H0Z" transform="translate(0 0.078)" fill="#0862ab"/>
      </g>
      <g id="Group_3" data-name="Group 3" transform="translate(23.994 24.16)">
        <path id="Path_9" data-name="Path 9" d="M0-.061H0v0H0v0H0Z" transform="translate(0 0.063)" fill="#0862ab"/>
      </g>
      <g id="Group_4" data-name="Group 4" transform="translate(23.991 24.16)">
        <path id="Path_10" data-name="Path 10" d="M0-.061H0v0H0Zm0,0H0Z" transform="translate(0 0.063)" fill="#0862ab"/>
      </g>
      <g id="Group_5" data-name="Group 5" transform="translate(23.988 24.16)">
        <path id="Path_11" data-name="Path 11" d="M0-.061H0Zm0,0v0H0Z" transform="translate(0 0.063)" fill="#0862ab"/>
      </g>
      <g id="Group_6" data-name="Group 6" transform="translate(23.985 24.16)">
        <path id="Path_12" data-name="Path 12" d="M0-.062H0v0H0v0H0Z" transform="translate(0 0.063)" fill="#0862ab"/>
      </g>
      <g id="Group_7" data-name="Group 7" transform="translate(23.982 24.16)">
        <path id="Path_13" data-name="Path 13" d="M0-.061H0v0H0Zm0,0H0Z" transform="translate(0 0.063)" fill="#0862ab"/>
      </g>
      <g id="Group_8" data-name="Group 8" transform="translate(23.979 24.159)">
        <path id="Path_14" data-name="Path 14" d="M0-.077v0H0v0H0v0H0Zm0,0H0Z" transform="translate(0 0.078)" fill="#0862ab"/>
      </g>
      <g id="Group_9" data-name="Group 9" transform="translate(23.974 24.159)">
        <path id="Path_15" data-name="Path 15" d="M0-.075H0Zm0,0H0v0H0v0H0Z" transform="translate(0 0.078)" fill="#0862ab"/>
      </g>
      <g id="Group_10" data-name="Group 10" transform="translate(23.971 24.161)">
        <path id="Path_16" data-name="Path 16" d="M0-.047H0v0H0v0H0Z" transform="translate(0 0.047)" fill="#0862ab"/>
      </g>
      <g id="Group_11" data-name="Group 11" transform="translate(23.966 24.159)">
        <path id="Path_17" data-name="Path 17" d="M0-.078H0l0,0H0l0,0H0Z" transform="translate(0 0.078)" fill="#0862ab"/>
      </g>
      <g id="Group_12" data-name="Group 12" transform="translate(23.962 24.16)">
        <path id="Path_18" data-name="Path 18" d="M0-.061H0Zm0,0v0H0Z" transform="translate(0 0.063)" fill="#0862ab"/>
      </g>
      <g id="Group_13" data-name="Group 13" transform="translate(23.958 24.16)">
        <path id="Path_19" data-name="Path 19" d="M0-.062H0v0H0v0H0v0H0v0H0v0H0v0H0Z" transform="translate(0 0.063)" fill="#0862ab"/>
      </g>
      <g id="Group_14" data-name="Group 14" transform="translate(23.954 24.16)">
        <path id="Path_20" data-name="Path 20" d="M0-.061H0Zm0,0v0H0Z" transform="translate(0 0.063)" fill="#0862ab"/>
      </g>
      <g id="Group_15" data-name="Group 15" transform="translate(23.951 24.16)">
        <path id="Path_21" data-name="Path 21" d="M0-.061v0H0v0H0v0H0v0H0Z" transform="translate(0 0.063)" fill="#0862ab"/>
      </g>
      <g id="Group_16" data-name="Group 16" transform="translate(23.945 24.159)">
        <path id="Path_22" data-name="Path 22" d="M.019-.078h0v0h0l0,0,0,0h0l0,0v0h0Z" transform="translate(-0.016 0.078)" fill="#0862ab"/>
      </g>
      <g id="Group_17" data-name="Group 17" transform="translate(23.942 24.159)">
        <path id="Path_23" data-name="Path 23" d="M0-.076v0H0v0H0v0H0v0H0v0H0Z" transform="translate(0 0.078)" fill="#0862ab"/>
      </g>
      <g id="Group_18" data-name="Group 18" transform="translate(23.939 24.16)">
        <path id="Path_24" data-name="Path 24" d="M0-.061H0Zm0,0v0H0Z" transform="translate(0 0.063)" fill="#0862ab"/>
      </g>
      <g id="Group_19" data-name="Group 19" transform="translate(23.935 24.16)">
        <path id="Path_25" data-name="Path 25" d="M0-.061v0H0v0H0v0H0v0H0Z" transform="translate(0 0.063)" fill="#0862ab"/>
      </g>
      <g id="Group_20" data-name="Group 20" transform="translate(23.998 24.164)">
        <path id="Path_26" data-name="Path 26" d="M0-.078H0v0H0v0H0Z" transform="translate(0 0.078)" fill="#0862ab"/>
      </g>
      <g id="Group_21" data-name="Group 21" transform="translate(23.996 24.165)">
        <path id="Path_27" data-name="Path 27" d="M0-.061H0v0H0v0H0Z" transform="translate(0 0.063)" fill="#0862ab"/>
      </g>
      <g id="Group_22" data-name="Group 22" transform="translate(23.993 24.165)">
        <path id="Path_28" data-name="Path 28" d="M0-.062H0Zm0,0H0v0H0v0H0Z" transform="translate(0 0.063)" fill="#0862ab"/>
      </g>
      <g id="Group_23" data-name="Group 23" transform="translate(23.988 24.165)">
        <path id="Path_29" data-name="Path 29" d="M0-.062H0v0H0v0H0v0H0v0H0v0H0v0H0Z" transform="translate(0 0.063)" fill="#0862ab"/>
      </g>
      <g id="Group_24" data-name="Group 24" transform="translate(23.983 24.165)">
        <path id="Path_30" data-name="Path 30" d="M0-.062H0v0H0v0H0Z" transform="translate(0 0.063)" fill="#0862ab"/>
      </g>
      <g id="Group_25" data-name="Group 25" transform="translate(23.98 24.164)">
        <path id="Path_31" data-name="Path 31" d="M0-.076v0H0v0H0v0H0v0H0v0H0Z" transform="translate(0 0.078)" fill="#0862ab"/>
      </g>
      <g id="Group_26" data-name="Group 26" transform="translate(23.977 24.165)">
        <path id="Path_32" data-name="Path 32" d="M0-.061H0v0H0Zm0,0H0Z" transform="translate(0 0.063)" fill="#0862ab"/>
      </g>
      <g id="Group_27" data-name="Group 27" transform="translate(23.971 24.164)">
        <path id="Path_33" data-name="Path 33" d="M.019-.078h0l0,0v0h0v0h0v0h0Z" transform="translate(-0.016 0.078)" fill="#0862ab"/>
      </g>
      <g id="Group_28" data-name="Group 28" transform="translate(23.968 24.165)">
        <path id="Path_34" data-name="Path 34" d="M0-.062H0Zm0,0H0v0H0v0H0Z" transform="translate(0 0.063)" fill="#0862ab"/>
      </g>
      <g id="Group_29" data-name="Group 29" transform="translate(23.965 24.166)">
        <path id="Path_35" data-name="Path 35" d="M0-.045v0H0v0H0Z" transform="translate(0 0.047)" fill="#0862ab"/>
      </g>
      <g id="Group_30" data-name="Group 30" transform="translate(23.961 24.165)">
        <path id="Path_36" data-name="Path 36" d="M0-.061v0H0v0H0v0H0v0H0Z" transform="translate(0 0.063)" fill="#0862ab"/>
      </g>
      <g id="Group_31" data-name="Group 31" transform="translate(23.956 24.164)">
        <path id="Path_37" data-name="Path 37" d="M.018-.078h0v0h0Zm0,0v0h0Z" transform="translate(-0.016 0.078)" fill="#0862ab"/>
      </g>
      <g id="Group_32" data-name="Group 32" transform="translate(23.953 24.165)">
        <path id="Path_38" data-name="Path 38" d="M0-.061H0v0H0v0H0Z" transform="translate(0 0.063)" fill="#0862ab"/>
      </g>
      <g id="Group_33" data-name="Group 33" transform="translate(23.95 24.165)">
        <path id="Path_39" data-name="Path 39" d="M0-.062H0Zm0,0H0v0H0v0H0Z" transform="translate(0 0.063)" fill="#0862ab"/>
      </g>
      <g id="Group_34" data-name="Group 34" transform="translate(23.949 24.164)">
        <path id="Path_40" data-name="Path 40" d="M0-.077H0v0H0Zm0,0H0Z" transform="translate(0 0.078)" fill="#0862ab"/>
      </g>
      <g id="Group_35" data-name="Group 35" transform="translate(23.945 24.165)">
        <path id="Path_41" data-name="Path 41" d="M0-.061H0v0H0Zm0,0H0Z" transform="translate(0 0.063)" fill="#0862ab"/>
      </g>
      <g id="Group_36" data-name="Group 36" transform="translate(23.943 24.165)">
        <path id="Path_42" data-name="Path 42" d="M0-.062H0v0H0Z" transform="translate(0 0.063)" fill="#0862ab"/>
      </g>
      <g id="Group_37" data-name="Group 37" transform="translate(23.94 24.165)">
        <path id="Path_43" data-name="Path 43" d="M0-.062H0v0H0v0H0Z" transform="translate(0 0.063)" fill="#0862ab"/>
      </g>
      <path id="noun-water-level-low-4613577" d="M124.215,50.55a6.083,6.083,0,0,1-6.821,0,.623.623,0,0,0-.8,0,6.083,6.083,0,0,1-6.82,0,.619.619,0,0,0-.8,0,5.521,5.521,0,0,1-3.406,1.046.571.571,0,0,1,0-1.143,4.457,4.457,0,0,0,2.7-.793,1.767,1.767,0,0,1,2.227,0,4.975,4.975,0,0,0,5.39,0,1.771,1.771,0,0,1,2.23,0,4.975,4.975,0,0,0,5.39,0,.59.59,0,0,1,.714.118A.7.7,0,0,1,124.215,50.55Zm-.714,6.515a5.246,5.246,0,0,1-5.39,0,1.771,1.771,0,0,0-2.23,0,5.246,5.246,0,0,1-5.39,0,1.767,1.767,0,0,0-2.227,0,4.458,4.458,0,0,1-2.7.792.571.571,0,1,0,0,1.143,5.527,5.527,0,0,0,3.411-1.045.617.617,0,0,1,.8,0,6.089,6.089,0,0,0,6.821,0,.621.621,0,0,1,.8,0,6.089,6.089,0,0,0,6.82,0,.676.676,0,0,0,0-.761A.609.609,0,0,0,123.5,57.065Z" transform="translate(-106.997 -42.94)" fill="#0862ab"/>
    </g>
  </g>
</svg>
